<svg width="46" height="32" viewBox="0 0 46 32" fill="none" xmlns="http://www.w3.org/2000/svg">
<path d="M43.6977 2.74697C42.0563 0.79587 39.026 0 33.2387 0H12.2308C6.31108 0 3.22939 0.847209 1.59424 2.92445C0 4.94977 0 7.93392 0 12.0641V19.9361C0 27.9375 1.89155 32 12.2308 32H33.2388C38.2575 32 41.0385 31.2977 42.8377 29.5759C44.6827 27.8102 45.47 24.9272 45.47 19.9361V12.0641C45.47 7.70848 45.3466 4.70673 43.6977 2.74697ZM29.1919 17.0869L19.6523 22.0726C19.439 22.1841 19.2058 22.2394 18.9729 22.2394C18.7091 22.2394 18.446 22.1684 18.2129 22.0273C17.7741 21.7613 17.5061 21.2857 17.5061 20.7726V10.8331C17.5061 10.3209 17.7733 9.84571 18.2113 9.57964C18.6494 9.31357 19.1943 9.29538 19.6489 9.53153L29.1885 14.4851C29.6738 14.7371 29.9786 15.2382 29.9794 15.7848C29.98 16.3319 29.6765 16.8337 29.1919 17.0869Z" fill="black"/>
</svg>
