<svg width="23" height="23" viewBox="0 0 23 23" fill="none" xmlns="http://www.w3.org/2000/svg">
<path d="M17.7087 18.4158L18.0623 18.0623L17.7259 17.7259L17.3732 18.0451L17.7087 18.4158ZM18.4158 17.7087L18.0451 17.3732L17.7259 17.7259L18.0623 18.0623L18.4158 17.7087ZM21.3536 20.6464L21.7071 21L22.0607 20.6464L21.7071 20.2929L21.3536 20.6464ZM20.6464 21.3536L20.2929 21.7071L20.6464 22.0607L21 21.7071L20.6464 21.3536ZM11 20.5C16.2467 20.5 20.5 16.2467 20.5 11H19.5C19.5 15.6944 15.6944 19.5 11 19.5V20.5ZM1.5 11C1.5 16.2467 5.75329 20.5 11 20.5V19.5C6.30558 19.5 2.5 15.6944 2.5 11H1.5ZM11 1.5C5.75329 1.5 1.5 5.75329 1.5 11H2.5C2.5 6.30558 6.30558 2.5 11 2.5V1.5ZM20.5 11C20.5 5.75329 16.2467 1.5 11 1.5V2.5C15.6944 2.5 19.5 6.30558 19.5 11H20.5ZM11 21.5C13.7103 21.5 16.1818 20.4725 18.0443 18.7865L17.3732 18.0451C15.6874 19.5711 13.4528 20.5 11 20.5V21.5ZM0.5 11C0.5 16.799 5.20101 21.5 11 21.5V20.5C5.75329 20.5 1.5 16.2467 1.5 11H0.5ZM11 0.5C5.20101 0.5 0.5 5.20101 0.5 11H1.5C1.5 5.75329 5.75329 1.5 11 1.5V0.5ZM21.5 11C21.5 5.20101 16.799 0.5 11 0.5V1.5C16.2467 1.5 20.5 5.75329 20.5 11H21.5ZM18.7865 18.0443C20.4725 16.1818 21.5 13.7103 21.5 11H20.5C20.5 13.4528 19.5711 15.6874 18.0451 17.3732L18.7865 18.0443ZM18.0623 18.0623L21 21L21.7071 20.2929L18.7694 17.3552L18.0623 18.0623ZM21 20.2929L20.2929 21L21 21.7071L21.7071 21L21 20.2929ZM21 21L18.0623 18.0623L17.3552 18.7694L20.2929 21.7071L21 21Z" fill="white"/>
</svg>
